<!-- Generated by IcoMoon.io -->
<svg version="1.1" xmlns="http://www.w3.org/2000/svg" width="24" height="24" viewBox="0 0 24 24">
<title>cc_na</title>
<path fill="#3367d6" d="M6.844 3.984h12.141q0.844 0 1.43 0.586t0.586 1.43v12.141l-3.422-3.375q0.422-0.281 0.422-0.75v-1.031h-1.5v0.516h-0.188l-1.828-1.828v-1.172h2.016v0.516h1.5v-1.031q0-0.375-0.305-0.68t-0.68-0.305h-3q-0.422 0-0.727 0.305t-0.305 0.68v0.188zM19.781 22.594l-2.625-2.578h-12.141q-0.844 0-1.43-0.586t-0.586-1.43v-12.141l-1.594-1.641 1.406-1.406 18.375 18.375zM11.016 13.828l-0.844-0.844h-0.656v0.516h-2.016v-3h0.188l-1.266-1.266q-0.422 0.281-0.422 0.75v4.031q0 0.375 0.305 0.68t0.68 0.305h3q0.422 0 0.727-0.305t0.305-0.68v-0.188z"></path>
</svg>
