<!-- Generated by IcoMoon.io -->
<svg version="1.1" xmlns="http://www.w3.org/2000/svg" width="24" height="24" viewBox="0 0 24 24">
<title>volume-low</title>
<path fill="#3367d6" d="M12.785 16.856c-0.261 0-0.521-0.099-0.72-0.298-0.397-0.398-0.397-1.042 0-1.439 1.72-1.72 1.72-4.518 0-6.238-0.397-0.397-0.397-1.042 0-1.44s1.042-0.397 1.44 0c2.513 2.513 2.513 6.603 0 9.117-0.199 0.199-0.459 0.298-0.72 0.298z"></path>
<path fill="#3367d6" d="M9.964 21.5c-0.177 0-0.35-0.069-0.48-0.199l-5.23-5.23h-2.433c-0.375 0-0.679-0.304-0.679-0.679v-6.786c0-0.375 0.304-0.679 0.679-0.679h2.433l5.23-5.23c0.194-0.194 0.486-0.252 0.74-0.147s0.419 0.353 0.419 0.627v17.643c0 0.275-0.165 0.522-0.419 0.627-0.084 0.035-0.172 0.052-0.26 0.052z"></path>
</svg>
